
Release info:

General
Format : Matroska
Format version : Version 2
File size : 689 MiB
Duration : 2h 12mn
Overall bit rate : 724 Kbps
Movie name : Khiladi 786 2012 DVDScr Hindi EngSub


Video
ID : 1
Format : MPEG-4 Visual
Format profile : Advanced Simple@L5
Format settings, BVOP : Yes
Format settings, QPel : No
Format settings, GMC : No warppoints
Format settings, Matrix : Default (H.263)
Codec ID : V_MS/VFW/FOURCC / XVID
Codec ID/Hint : XviD
Duration : 2h 12mn
Bit rate : 630 Kbps
Width : 640 pixels
Height : 256 pixels
Display aspect ratio : 2.500
Frame rate mode : Constant
Frame rate : 23.976 fps
Color space : YUV
Chroma subsampling : 4:2:0
Bit depth : 8 bits
Scan type : Progressive
Compression mode : Lossy
Bits/(Pixel*Frame) : 0.160
Stream size : 599 MiB (87%)
Title : Khiladi 786 2012 DVDScr Hindi EngSub
Language : Hindi
Default : Yes
Forced : No

Audio
ID : 2
Format : MPEG Audio
Format version : Version 1
Format profile : Layer 3
Mode : Joint stereo
Mode extension : MS Stereo
Muxing mode : Header stripping
Codec ID : A_MPEG/L3
Codec ID/Hint : MP3
Duration : 1h 12mn
Bit rate mode : Constant
Bit rate : 80.0 Kbps
Channel(s) : 2 channels
Sampling rate : 32.0 KHz
Compression mode : Lossy
Stream size : 41.6 MiB (6%)
Title : Khiladi 786 2012 DVDScr Hindi EngSub
Language : Hindi
Default : Yes
Forced : No

Text
ID : 3
Format : UTF-8
Codec ID : S_TEXT/UTF8
Codec ID/Info : UTF-8 Plain Text
Title : Khiladi 786 2012 DVDScr Hindi EngSub
Language : English
Default : Yes
Forced : No

Source:
credit to original movie ripper DDR (Thanks)

IMDB Info:

Born to an owner of a marriage bureau Champak Lal, Mansukh has been a complete failure ever since he has grown up and tried to help his father in their family business... 

Director: Ashish R. Mohan
Writers: Himesh Reshammiya (story), Bunty Rathore (dialogue), 
Stars: Asin, Raj Babbar and Vipin Bakshi 

Genres: Action | Comedy
 
http://www.imdb.com/title/tt2166214/

Screen Shot:
 
http://www.shotpix.com/images/58188259030159695155.png 
http://www.shotpix.com/images/00514063421712521161.png 
http://www.shotpix.com/images/71587374018366543060.png 
http://www.shotpix.com/images/25669355594486451060.png 
http://www.shotpix.com/images/19890029972752701192.png 
http://www.shotpix.com/images/75776159260171934956.png 
http://www.shotpix.com/images/69943585290073226786.png 
http://www.shotpix.com/images/65560870390148655947.png